<svg width="19" height="17" viewBox="0 0 19 17" fill="none" xmlns="http://www.w3.org/2000/svg">
<path d="M5.7 8.5C7.53766 8.5 9.025 6.83652 9.025 4.78125C9.025 2.72598 7.53766 1.0625 5.7 1.0625C3.86234 1.0625 2.375 2.72598 2.375 4.78125C2.375 6.83652 3.86234 8.5 5.7 8.5ZM7.98 9.5625H7.73359C7.11609 9.89453 6.43031 10.0938 5.7 10.0938C4.96969 10.0938 4.28687 9.89453 3.66641 9.5625H3.42C1.53187 9.5625 0 11.2758 0 13.3875V14.3438C0 15.2236 0.638281 15.9375 1.425 15.9375H9.975C10.7617 15.9375 11.4 15.2236 11.4 14.3438V13.3875C11.4 11.2758 9.86812 9.5625 7.98 9.5625ZM14.25 8.5C15.8234 8.5 17.1 7.07227 17.1 5.3125C17.1 3.55273 15.8234 2.125 14.25 2.125C12.6766 2.125 11.4 3.55273 11.4 5.3125C11.4 7.07227 12.6766 8.5 14.25 8.5ZM15.675 9.5625H15.5622C15.1495 9.72188 14.7131 9.82812 14.25 9.82812C13.7869 9.82812 13.3505 9.72188 12.9378 9.5625H12.825C12.2194 9.5625 11.6612 9.7584 11.1714 10.0738C11.8958 10.9471 12.35 12.1059 12.35 13.3875V14.6625C12.35 14.7355 12.3352 14.8053 12.3322 14.875H17.575C18.3617 14.875 19 14.1611 19 13.2812C19 11.226 17.5127 9.5625 15.675 9.5625Z" fill="black"/>
</svg>
