<svg width="19" height="15" viewBox="0 0 19 15" fill="none" xmlns="http://www.w3.org/2000/svg">
<path d="M5.7 7.5C7.53766 7.5 9.025 5.83652 9.025 3.78125C9.025 1.72598 7.53766 0.0625 5.7 0.0625C3.86234 0.0625 2.375 1.72598 2.375 3.78125C2.375 5.83652 3.86234 7.5 5.7 7.5ZM7.98 8.5625H7.73359C7.11609 8.89453 6.43031 9.0938 5.7 9.0938C4.96969 9.0938 4.28687 8.89453 3.66641 8.5625H3.42C1.53187 8.5625 0 10.2758 0 12.3875V13.3438C0 14.2236 0.638281 14.9375 1.425 14.9375H9.975C10.7617 14.9375 11.4 14.2236 11.4 13.3438V12.3875C11.4 10.2758 9.86812 8.5625 7.98 8.5625ZM14.25 7.5C15.8234 7.5 17.1 6.07227 17.1 4.3125C17.1 2.55273 15.8234 1.125 14.25 1.125C12.6766 1.125 11.4 2.55273 11.4 4.3125C11.4 6.07227 12.6766 7.5 14.25 7.5ZM15.675 8.5625H15.5622C15.1495 8.72188 14.7131 8.82812 14.25 8.82812C13.7869 8.82812 13.3505 8.72188 12.9378 8.5625H12.825C12.2194 8.5625 11.6612 8.7584 11.1714 9.0738C11.8958 9.9471 12.35 11.1059 12.35 12.3875V13.6625C12.35 13.7355 12.3352 13.8053 12.3322 13.875H17.575C18.3617 13.875 19 13.1611 19 12.2812C19 10.226 17.5127 8.5625 15.675 8.5625Z" fill="#CDCACA"/>
</svg>
