<svg width="144" height="46" viewBox="0 0 144 46" fill="none" xmlns="http://www.w3.org/2000/svg">
<path d="M32.7002 1.87187V0H43.1404V1.87187L39.2771 2.41973L31.5044 30.863H29.5268L21.5702 7.21355L14.0735 30.863H12.0959L3.81733 2.32842L0 1.87187V0H12.5098V1.87187L8.27854 2.37408L13.9355 23.3299L20.9263 2.41973L16.3271 1.87187V0H28.8369V1.87187L24.1917 2.41973L31.0445 23.5582L36.8855 2.46539L32.7002 1.87187Z" fill="#CCCCCC"/>
<path d="M44.3552 30.5434V29.7216L46.0799 29.4021C46.0952 28.8238 46.1029 28.1998 46.1029 27.5302C46.1182 26.8454 46.1259 26.2518 46.1259 25.7496V24.6767C46.1259 24.0528 46.1182 23.5353 46.1029 23.1244C46.1029 22.6983 46.0876 22.257 46.0569 21.8004L44.2172 21.595V20.796L47.7586 19.4035L48.1035 19.6318L48.0346 22.7364V25.7496C48.0346 26.2518 48.0346 26.8454 48.0346 27.5302C48.0499 28.1998 48.0652 28.8238 48.0805 29.4021L49.6903 29.7216V30.5434H44.3552ZM47.0687 16.8925C46.6395 16.8925 46.2715 16.7555 45.9649 16.4816C45.6736 16.2077 45.528 15.8576 45.528 15.4315C45.528 14.9902 45.6736 14.6402 45.9649 14.3814C46.2715 14.1075 46.6395 13.9705 47.0687 13.9705C47.498 13.9705 47.8583 14.1075 48.1495 14.3814C48.4561 14.6402 48.6095 14.9902 48.6095 15.4315C48.6095 15.8576 48.4561 16.2077 48.1495 16.4816C47.8583 16.7555 47.498 16.8925 47.0687 16.8925Z" fill="#CCCCCC"/>
<path d="M50.9746 30.5434V29.7216L52.8143 29.4021C52.8296 28.7933 52.8373 28.1846 52.8373 27.5758C52.8526 26.9519 52.8603 26.3432 52.8603 25.7496V15.7283L50.9746 15.5V14.701L54.562 13.6738L54.8839 13.8564L54.7919 17.0979V25.0648L58.7243 21.0015L57.0226 20.5906V19.7003H62.3806V20.5906L60.219 20.9102L57.6894 23.4897L61.4608 29.4477L62.9785 29.7216V30.5434H59.8511L56.3097 24.8822L54.7919 26.4345C54.7919 26.9215 54.7919 27.4161 54.7919 27.9183C54.8073 28.4205 54.8226 28.9151 54.8379 29.4021L56.6776 29.7216V30.5434H50.9746Z" fill="#CCCCCC"/>
<path d="M63.7805 30.5434V29.7216L65.5052 29.4021C65.5205 28.8238 65.5282 28.1998 65.5282 27.5302C65.5435 26.8454 65.5512 26.2518 65.5512 25.7496V24.6767C65.5512 24.0528 65.5435 23.5353 65.5282 23.1244C65.5282 22.6983 65.5128 22.257 65.4822 21.8004L63.6425 21.595V20.796L67.1839 19.4035L67.5288 19.6318L67.4598 22.7364V25.7496C67.4598 26.2518 67.4598 26.8454 67.4598 27.5302C67.4752 28.1998 67.4905 28.8238 67.5058 29.4021L69.1155 29.7216V30.5434H63.7805ZM66.494 16.8925C66.0647 16.8925 65.6968 16.7555 65.3902 16.4816C65.0989 16.2077 64.9533 15.8576 64.9533 15.4315C64.9533 14.9902 65.0989 14.6402 65.3902 14.3814C65.6968 14.1075 66.0647 13.9705 66.494 13.9705C66.9233 13.9705 67.2835 14.1075 67.5748 14.3814C67.8814 14.6402 68.0347 14.9902 68.0347 15.4315C68.0347 15.8576 67.8814 16.2077 67.5748 16.4816C67.2835 16.7555 66.9233 16.8925 66.494 16.8925Z" fill="#CCCCCC"/>
<path d="M84.5884 2.10015H80.6331C80.6024 4.10898 80.5718 6.11782 80.5411 8.12666C80.5411 10.1051 80.5411 12.1748 80.5411 14.3358H84.0825C86.566 14.3358 88.3904 13.7423 89.5555 12.5552C90.7513 11.3682 91.3492 9.86156 91.3492 8.03535C91.3492 6.11782 90.8126 4.65685 89.7395 3.65243C88.6663 2.61757 86.9493 2.10015 84.5884 2.10015ZM71.8486 1.87187V0H84.7264C88.2524 0 90.9966 0.700049 92.9589 2.10015C94.9212 3.50025 95.9024 5.46343 95.9024 7.98969C95.9024 9.75503 95.2585 11.3682 93.9707 12.8292C92.683 14.2901 90.7513 15.2489 88.1758 15.7054C89.5248 15.9794 90.6287 16.5729 91.4872 17.486C92.3763 18.3687 93.0816 19.7079 93.6028 21.5037L95.5804 28.2607L99.1218 28.6716V30.5434C98.6619 30.6652 98.1407 30.7717 97.5581 30.863C97.0062 30.9543 96.3776 31 95.6724 31C94.2314 31 93.1429 30.7869 92.407 30.3608C91.7018 29.9347 91.2112 29.1738 90.9353 28.0781L89.0956 20.7732C88.8196 19.5253 88.421 18.597 87.8998 17.9882C87.3786 17.349 86.704 16.9229 85.8762 16.7099C85.079 16.4968 84.0518 16.3903 82.7947 16.3903H80.5411C80.5411 18.5817 80.5411 20.6362 80.5411 22.5538C80.5718 24.4713 80.6024 26.3432 80.6331 28.1694L84.8643 28.6716V30.5434H71.8486V28.6716L76.0799 28.1694C76.1412 26.2518 76.1719 24.3039 76.1719 22.3255C76.1719 20.3471 76.1719 18.3687 76.1719 16.3903V14.1532C76.1719 12.1748 76.1719 10.2116 76.1719 8.26362C76.1719 6.28522 76.1412 4.32204 76.0799 2.37408L71.8486 1.87187Z" fill="#CCCCCC"/>
<path d="M109.349 30.7717C108.797 30.7717 108.337 30.6119 107.969 30.2923C107.601 29.9728 107.371 29.5466 107.279 29.014C106.651 29.6227 106.099 30.0793 105.624 30.3837C105.148 30.688 104.573 30.8402 103.899 30.8402C103.056 30.8402 102.327 30.6043 101.714 30.1325C101.116 29.6456 100.817 28.9303 100.817 27.9867C100.817 27.5454 100.917 27.1345 101.116 26.754C101.331 26.3736 101.714 26.0007 102.266 25.6355C102.818 25.2703 103.608 24.905 104.635 24.5398C104.987 24.418 105.394 24.2887 105.854 24.1517C106.313 24.0147 106.773 23.893 107.233 23.7864V23.2158C107.233 22.1048 107.065 21.3667 106.727 21.0015C106.39 20.6362 105.838 20.4536 105.072 20.4536C104.903 20.4536 104.711 20.4612 104.497 20.4764C104.297 20.4917 104.075 20.5297 103.83 20.5906L103.393 22.0744C103.178 22.8049 102.78 23.1701 102.197 23.1701C101.553 23.1701 101.193 22.8581 101.116 22.2342C101.331 21.3667 101.837 20.6819 102.634 20.1797C103.447 19.6622 104.435 19.4035 105.601 19.4035C106.812 19.4035 107.709 19.7079 108.291 20.3166C108.874 20.9102 109.165 21.9298 109.165 23.3756V28.2378C109.165 28.7248 109.242 29.0749 109.395 29.2879C109.548 29.4858 109.747 29.5847 109.993 29.5847C110.192 29.5847 110.361 29.539 110.499 29.4477C110.637 29.3564 110.767 29.2347 110.89 29.0825L111.35 29.5847C111.074 30.026 110.767 30.338 110.43 30.5206C110.108 30.688 109.747 30.7717 109.349 30.7717ZM102.864 27.6443C102.864 28.2531 103.04 28.6868 103.393 28.9455C103.746 29.2042 104.182 29.3336 104.704 29.3336C104.934 29.3336 105.148 29.3031 105.348 29.2423C105.562 29.1814 105.815 29.0673 106.106 28.8999C106.398 28.7172 106.773 28.4585 107.233 28.1237V24.6311C106.835 24.7376 106.444 24.8594 106.06 24.9963C105.677 25.1181 105.363 25.2246 105.118 25.3159C104.458 25.5746 103.968 25.8409 103.646 26.1149C103.324 26.3888 103.109 26.6551 103.002 26.9138C102.91 27.1726 102.864 27.4161 102.864 27.6443Z" fill="#CCCCCC"/>
<path d="M117.623 30.8402C116.044 30.8402 114.786 30.3304 113.851 29.3108C112.916 28.2911 112.449 26.9062 112.449 25.1561C112.449 23.9539 112.694 22.9266 113.184 22.0744C113.69 21.2069 114.35 20.5449 115.162 20.0884C115.975 19.6318 116.841 19.4035 117.761 19.4035C118.45 19.4035 119.087 19.5329 119.669 19.7916C120.252 20.0503 120.735 20.408 121.118 20.8645C121.501 21.3058 121.739 21.8081 121.831 22.3711C121.724 22.9494 121.371 23.2386 120.773 23.2386C120.39 23.2386 120.098 23.1397 119.899 22.9418C119.715 22.7288 119.585 22.4624 119.508 22.1429L119.094 20.6362C118.88 20.5601 118.665 20.5145 118.45 20.4993C118.251 20.4688 118.052 20.4536 117.853 20.4536C116.871 20.4536 116.059 20.8341 115.415 21.595C114.786 22.3559 114.472 23.4669 114.472 24.9278C114.472 26.3584 114.817 27.4541 115.507 28.215C116.197 28.9759 117.078 29.3564 118.151 29.3564C118.811 29.3564 119.416 29.2118 119.968 28.9227C120.52 28.6183 120.972 28.1846 121.325 27.6215L121.9 27.9183C121.578 28.8618 121.057 29.5847 120.336 30.0869C119.616 30.5891 118.711 30.8402 117.623 30.8402Z" fill="#CCCCCC"/>
<path d="M128.897 20.4536C128.468 20.4536 128.031 20.5754 127.586 20.8189C127.157 21.0623 126.781 21.4504 126.459 21.9831C126.153 22.5157 125.954 23.2234 125.862 24.106H130.047C130.599 24.106 130.959 23.9919 131.128 23.7636C131.312 23.5353 131.404 23.2538 131.404 22.919C131.404 22.4777 131.289 22.0744 131.059 21.7091C130.844 21.3287 130.545 21.0243 130.162 20.796C129.794 20.5677 129.372 20.4536 128.897 20.4536ZM128.874 30.8402C127.326 30.8402 126.084 30.3456 125.149 29.3564C124.214 28.352 123.746 26.9747 123.746 25.2246C123.746 24.0528 123.984 23.0331 124.459 22.1657C124.949 21.2982 125.593 20.621 126.391 20.134C127.203 19.647 128.085 19.4035 129.035 19.4035C129.832 19.4035 130.553 19.5785 131.197 19.9286C131.841 20.2786 132.354 20.7808 132.737 21.4352C133.121 22.0744 133.312 22.8581 133.312 23.7864C133.312 24.0452 133.297 24.2887 133.266 24.5169C133.236 24.73 133.197 24.9126 133.151 25.0648H125.816C125.846 26.4649 126.199 27.5302 126.873 28.2607C127.548 28.9912 128.437 29.3564 129.541 29.3564C130.277 29.3564 130.89 29.2118 131.381 28.9227C131.871 28.6183 132.323 28.2302 132.737 27.7585L133.289 28.1922C132.86 28.9988 132.277 29.6456 131.542 30.1325C130.806 30.6043 129.917 30.8402 128.874 30.8402Z" fill="#CCCCCC"/>
<path d="M135.4 30.5434V29.7216L137.055 29.4249C137.071 28.8466 137.078 28.2226 137.078 27.553C137.094 26.8682 137.101 26.2671 137.101 25.7496V24.6539C137.101 24.0299 137.094 23.5125 137.078 23.1016C137.078 22.6907 137.063 22.257 137.032 21.8004L135.216 21.595V20.796L138.435 19.4035L138.78 19.6318L139.033 22.3255C139.416 21.4124 139.907 20.6971 140.505 20.1797C141.118 19.6622 141.731 19.4035 142.344 19.4035C142.697 19.4035 143.027 19.4796 143.333 19.6318C143.64 19.784 143.862 19.9894 144 20.2482C144 21.3591 143.548 21.9146 142.643 21.9146C142.383 21.9146 142.137 21.8689 141.907 21.7776C141.677 21.6711 141.455 21.5265 141.24 21.3439L140.965 21.0928C140.505 21.4276 140.121 21.8385 139.815 22.3255C139.508 22.8125 139.255 23.3832 139.056 24.0376V25.7496C139.056 26.2518 139.056 26.8378 139.056 27.5074C139.071 28.177 139.087 28.8009 139.102 29.3792L140.988 29.7216V30.5434H135.4Z" fill="#CCCCCC"/>
<path d="M41.2216 38.9699V38.6413H43.395V38.9699L42.6859 39.0581C42.6808 39.3948 42.6757 39.7368 42.6705 40.0842C42.6705 40.4315 42.6705 40.7789 42.6705 41.1263V41.519C42.6705 41.8611 42.6705 42.2057 42.6705 42.5531C42.6757 42.8951 42.6808 43.2398 42.6859 43.5872L43.395 43.6754V44.004H41.2216V43.6754L41.9306 43.5872C41.9409 43.2452 41.9461 42.8978 41.9461 42.5451C41.9461 42.187 41.9461 41.821 41.9461 41.4469H39.4566C39.4566 41.853 39.4566 42.2298 39.4566 42.5772C39.4618 42.9245 39.4669 43.2639 39.4721 43.5952L40.1734 43.6754V44.004H38V43.6754L38.7091 43.5872C38.7193 43.2505 38.7245 42.9085 38.7245 42.5611C38.7245 42.2138 38.7245 41.8664 38.7245 41.519V41.1263C38.7245 40.7789 38.7245 40.4342 38.7245 40.0922C38.7245 39.7448 38.7193 39.4001 38.7091 39.0581L38 38.9699V38.6413H40.1734V38.9699L39.4721 39.0501C39.4669 39.3921 39.4618 39.7341 39.4566 40.0762C39.4566 40.4182 39.4566 40.7495 39.4566 41.0701H41.9461C41.9461 40.7174 41.9461 40.3754 41.9461 40.0441C41.9461 39.7128 41.9409 39.3841 41.9306 39.0581L41.2216 38.9699Z" fill="#CCCCCC"/>
<path d="M45.7035 44.1082C45.4055 44.1082 45.1203 44.0361 44.848 43.8918C44.5808 43.7422 44.3625 43.5204 44.1929 43.2265C44.0234 42.9272 43.9386 42.5584 43.9386 42.1202C43.9386 41.6767 44.0234 41.3053 44.1929 41.006C44.3625 40.7014 44.5808 40.4743 44.848 40.3246C45.1203 40.1697 45.4055 40.0922 45.7035 40.0922C46.0015 40.0922 46.2841 40.1697 46.5513 40.3246C46.8236 40.4743 47.0446 40.7014 47.2141 41.006C47.3888 41.3053 47.4762 41.6767 47.4762 42.1202C47.4762 42.5584 47.3888 42.9272 47.2141 43.2265C47.0446 43.5204 46.8236 43.7422 46.5513 43.8918C46.2841 44.0361 46.0015 44.1082 45.7035 44.1082ZM45.7035 43.7475C46.0375 43.7475 46.2944 43.6112 46.4742 43.3387C46.6541 43.0608 46.744 42.6546 46.744 42.1202C46.744 41.5805 46.6541 41.169 46.4742 40.8858C46.2944 40.6025 46.0375 40.4609 45.7035 40.4609C45.3695 40.4609 45.1126 40.6025 44.9328 40.8858C44.7581 41.169 44.6708 41.5805 44.6708 42.1202C44.6708 42.6546 44.7581 43.0608 44.9328 43.3387C45.1126 43.6112 45.3695 43.7475 45.7035 43.7475Z" fill="#CCCCCC"/>
<path d="M52.2224 40.509V40.1964H53.6328V40.509L53.2166 40.6132L52.0914 44.0521H51.8062L50.8043 41.2064L49.787 44.0521H49.5018L48.261 40.5892L47.8217 40.509V40.1964H49.5789V40.509L48.9777 40.6052L49.7716 43.0661L50.6348 40.6052L50.0644 40.509V40.1964H51.7677V40.509L51.1974 40.6132L52.076 43.0581L52.7928 40.6212L52.2224 40.509Z" fill="#CCCCCC"/>
<path d="M55.7837 44.004V43.7154L56.3925 43.6032C56.3977 43.3894 56.4002 43.1757 56.4002 42.9619C56.4054 42.7482 56.4079 42.5344 56.4079 42.3206V40.6212H55.7682V40.2685L56.4234 40.1804C56.4593 39.7528 56.5158 39.4082 56.5929 39.1463C56.6751 38.8791 56.8113 38.6466 57.0014 38.4489C57.1658 38.2779 57.3379 38.1603 57.5178 38.0962C57.6976 38.0321 57.8749 38 58.0496 38C58.2294 38 58.3887 38.0347 58.5274 38.1042C58.6661 38.1683 58.7535 38.2779 58.7894 38.4329C58.7843 38.5344 58.7406 38.6199 58.6584 38.6894C58.5762 38.7588 58.4632 38.7936 58.3193 38.7936C58.1343 38.7936 57.9494 38.7134 57.7644 38.5531L57.5486 38.3768C57.528 38.3928 57.5075 38.4088 57.4869 38.4249C57.4715 38.4409 57.4561 38.4569 57.4407 38.4729C57.3071 38.6119 57.2043 38.823 57.1324 39.1062C57.0656 39.3841 57.0374 39.7475 57.0476 40.1964H58.1112V40.6212H57.063V42.3206C57.063 42.5344 57.063 42.7482 57.063 42.9619C57.0682 43.1703 57.0733 43.3814 57.0785 43.5952L57.7721 43.7154V44.004H55.7837Z" fill="#CCCCCC"/>
<path d="M61.437 44.0842C61.252 44.0842 61.0978 44.0281 60.9745 43.9158C60.8512 43.8036 60.7741 43.654 60.7433 43.4669C60.5327 43.6807 60.3477 43.841 60.1884 43.9479C60.0291 44.0548 59.8364 44.1082 59.6104 44.1082C59.3278 44.1082 59.0837 44.0254 58.8782 43.8597C58.6778 43.6887 58.5776 43.4375 58.5776 43.1062C58.5776 42.9512 58.611 42.8069 58.6778 42.6733C58.7497 42.5397 58.8782 42.4088 59.0632 42.2806C59.2481 42.1523 59.5127 42.024 59.857 41.8958C59.9752 41.853 60.1113 41.8076 60.2655 41.7595C60.4196 41.7114 60.5738 41.6687 60.7279 41.6313V41.4309C60.7279 41.0407 60.6714 40.7816 60.5583 40.6533C60.4453 40.525 60.2603 40.4609 60.0034 40.4609C59.9469 40.4609 59.8827 40.4636 59.8108 40.4689C59.744 40.4743 59.6695 40.4876 59.5872 40.509L59.4408 41.0301C59.3689 41.2866 59.2353 41.4148 59.04 41.4148C58.8242 41.4148 58.7035 41.3053 58.6778 41.0862C58.7497 40.7816 58.9193 40.5411 59.1865 40.3647C59.4588 40.183 59.7902 40.0922 60.1807 40.0922C60.5866 40.0922 60.8872 40.1991 61.0824 40.4128C61.2777 40.6212 61.3753 40.9793 61.3753 41.487V43.1944C61.3753 43.3654 61.401 43.4883 61.4524 43.5631C61.5038 43.6326 61.5705 43.6673 61.6528 43.6673C61.7196 43.6673 61.7761 43.6513 61.8223 43.6192C61.8686 43.5872 61.9122 43.5444 61.9533 43.491L62.1075 43.6673C62.015 43.8223 61.9122 43.9319 61.7992 43.996C61.6913 44.0548 61.5705 44.0842 61.437 44.0842ZM59.2635 42.986C59.2635 43.1997 59.3226 43.352 59.4408 43.4429C59.559 43.5337 59.7054 43.5792 59.8801 43.5792C59.9572 43.5792 60.0291 43.5685 60.0959 43.5471C60.1679 43.5257 60.2526 43.4856 60.3503 43.4269C60.4479 43.3627 60.5738 43.2719 60.7279 43.1543V41.9279C60.5943 41.9653 60.4633 42.008 60.3348 42.0561C60.2064 42.0989 60.1011 42.1363 60.0188 42.1683C59.7979 42.2592 59.6335 42.3527 59.5256 42.4489C59.4177 42.5451 59.3458 42.6386 59.3098 42.7295C59.279 42.8203 59.2635 42.9058 59.2635 42.986Z" fill="#CCCCCC"/>
<path d="M63.6935 44.1082C63.4777 44.1082 63.2799 44.0815 63.1001 44.0281C62.9202 43.98 62.7353 43.9051 62.5452 43.8036L62.5143 42.9218H62.9382L63.0847 43.6192C63.2645 43.7047 63.4726 43.7475 63.7089 43.7475C64.0018 43.7475 64.2176 43.6914 64.3563 43.5792C64.5002 43.4669 64.5721 43.32 64.5721 43.1383C64.5721 42.9673 64.513 42.831 64.3949 42.7295C64.2767 42.6226 64.0969 42.5264 63.8554 42.4409L63.5008 42.3046C63.2182 42.1977 62.9922 42.0588 62.8226 41.8878C62.6531 41.7168 62.5683 41.495 62.5683 41.2224C62.5683 41.0247 62.6197 40.8403 62.7224 40.6693C62.8252 40.4983 62.9768 40.3594 63.1771 40.2525C63.3775 40.1456 63.6216 40.0922 63.9093 40.0922C64.12 40.0922 64.3101 40.1216 64.4797 40.1804C64.6543 40.2338 64.8239 40.314 64.9883 40.4208L64.9575 41.2385H64.5567L64.4334 40.5972C64.2587 40.5063 64.0814 40.4609 63.9016 40.4609C63.6653 40.4609 63.4854 40.5117 63.3621 40.6132C63.2439 40.7094 63.1849 40.8403 63.1849 41.006C63.1849 41.1824 63.2362 41.316 63.339 41.4068C63.4469 41.4977 63.6319 41.5939 63.8939 41.6954L64.1328 41.7836C64.5182 41.9332 64.7905 42.1042 64.9498 42.2966C65.1142 42.489 65.1964 42.7108 65.1964 42.9619C65.1964 43.165 65.1399 43.3547 65.0269 43.5311C64.9138 43.7021 64.7468 43.841 64.5259 43.9479C64.305 44.0548 64.0275 44.1082 63.6935 44.1082Z" fill="#CCCCCC"/>
<path d="M67.0738 44.1082C66.8066 44.1082 66.5934 44.0334 66.4341 43.8838C66.2748 43.7341 66.1952 43.5043 66.1952 43.1944C66.1952 43.0929 66.1952 42.994 66.1952 42.8978C66.2003 42.7963 66.2029 42.668 66.2029 42.513V40.6212H65.5632V40.2685L66.2492 40.1804L66.4495 39.1062H66.912L66.8657 40.1964H67.9062V40.6212H66.858V43.1062C66.858 43.3093 66.8966 43.4589 66.9736 43.5551C67.0507 43.646 67.1535 43.6914 67.2819 43.6914C67.3693 43.6914 67.4515 43.6727 67.5285 43.6353C67.6108 43.5979 67.7007 43.5444 67.7983 43.4749L67.9833 43.6834C67.7726 43.9666 67.4695 44.1082 67.0738 44.1082Z" fill="#CCCCCC"/>
<path d="M71.8568 44.1082C71.3276 44.1082 70.9063 43.9292 70.5928 43.5711C70.2794 43.2131 70.1227 42.7268 70.1227 42.1122C70.1227 41.69 70.2049 41.3293 70.3693 41.0301C70.5389 40.7255 70.7598 40.493 71.0322 40.3327C71.3045 40.1723 71.5948 40.0922 71.9031 40.0922C72.1343 40.0922 72.3475 40.1376 72.5428 40.2285C72.738 40.3193 72.8999 40.4449 73.0283 40.6052C73.1568 40.7602 73.2364 40.9365 73.2672 41.1343C73.2313 41.3373 73.1131 41.4389 72.9127 41.4389C72.7842 41.4389 72.6866 41.4041 72.6198 41.3347C72.5582 41.2599 72.5145 41.1663 72.4888 41.0541L72.3501 40.5251C72.2781 40.4983 72.2062 40.4823 72.1343 40.477C72.0675 40.4663 72.0007 40.4609 71.9339 40.4609C71.6051 40.4609 71.3327 40.5945 71.1169 40.8617C70.9063 41.1289 70.8009 41.519 70.8009 42.0321C70.8009 42.5344 70.9165 42.9192 71.1478 43.1864C71.379 43.4536 71.6744 43.5872 72.0341 43.5872C72.255 43.5872 72.458 43.5364 72.6429 43.4349C72.8279 43.328 72.9795 43.1757 73.0977 42.978L73.2903 43.0822C73.1824 43.4135 73.0077 43.6673 72.7663 43.8437C72.5248 44.02 72.2216 44.1082 71.8568 44.1082Z" fill="#CCCCCC"/>
<path d="M76.7684 44.0842C76.5835 44.0842 76.4293 44.0281 76.306 43.9158C76.1827 43.8036 76.1056 43.654 76.0748 43.4669C75.8641 43.6807 75.6791 43.841 75.5199 43.9479C75.3606 44.0548 75.1679 44.1082 74.9418 44.1082C74.6592 44.1082 74.4152 44.0254 74.2097 43.8597C74.0093 43.6887 73.9091 43.4375 73.9091 43.1062C73.9091 42.9512 73.9425 42.8069 74.0093 42.6733C74.0812 42.5397 74.2097 42.4088 74.3946 42.2806C74.5796 42.1523 74.8442 42.024 75.1885 41.8958C75.3066 41.853 75.4428 41.8076 75.5969 41.7595C75.7511 41.7114 75.9052 41.6687 76.0594 41.6313V41.4309C76.0594 41.0407 76.0029 40.7816 75.8898 40.6533C75.7768 40.525 75.5918 40.4609 75.3349 40.4609C75.2784 40.4609 75.2142 40.4636 75.1422 40.4689C75.0754 40.4743 75.0009 40.4876 74.9187 40.509L74.7723 41.0301C74.7003 41.2866 74.5668 41.4148 74.3715 41.4148C74.1557 41.4148 74.035 41.3053 74.0093 41.0862C74.0812 40.7816 74.2508 40.5411 74.5179 40.3647C74.7903 40.183 75.1217 40.0922 75.5122 40.0922C75.9181 40.0922 76.2186 40.1991 76.4139 40.4128C76.6091 40.6212 76.7068 40.9793 76.7068 41.487V43.1944C76.7068 43.3654 76.7325 43.4883 76.7838 43.5631C76.8352 43.6326 76.902 43.6673 76.9842 43.6673C77.051 43.6673 77.1075 43.6513 77.1538 43.6192C77.2 43.5872 77.2437 43.5444 77.2848 43.491L77.4389 43.6673C77.3465 43.8223 77.2437 43.9319 77.1307 43.996C77.0228 44.0548 76.902 44.0842 76.7684 44.0842ZM74.595 42.986C74.595 43.1997 74.6541 43.352 74.7723 43.4429C74.8905 43.5337 75.0369 43.5792 75.2116 43.5792C75.2887 43.5792 75.3606 43.5685 75.4274 43.5471C75.4993 43.5257 75.5841 43.4856 75.6817 43.4269C75.7793 43.3627 75.9052 43.2719 76.0594 43.1543V41.9279C75.9258 41.9653 75.7948 42.008 75.6663 42.0561C75.5379 42.0989 75.4325 42.1363 75.3503 42.1683C75.1294 42.2592 74.965 42.3527 74.8571 42.4489C74.7492 42.5451 74.6772 42.6386 74.6413 42.7295C74.6104 42.8203 74.595 42.9058 74.595 42.986Z" fill="#CCCCCC"/>
<path d="M77.7542 44.004V43.7154L78.3245 43.6032C78.3297 43.4001 78.3323 43.181 78.3323 42.9459C78.3374 42.7108 78.34 42.5023 78.34 42.3206V41.9359C78.34 41.7168 78.3374 41.5351 78.3323 41.3908C78.3323 41.2465 78.3271 41.0942 78.3168 40.9339L77.708 40.8617V40.5812L78.787 40.0922L78.9026 40.1723L78.9642 40.8136C79.1543 40.5999 79.3727 40.4262 79.6193 40.2926C79.866 40.159 80.1075 40.0922 80.3438 40.0922C80.6778 40.0922 80.9244 40.2098 81.0837 40.4449C81.2481 40.6747 81.3303 41.0514 81.3303 41.5751V42.3206C81.3303 42.5023 81.3303 42.7108 81.3303 42.9459C81.3355 43.181 81.3406 43.4001 81.3457 43.6032L81.8852 43.7154V44.004H80.0972V43.7154L80.6675 43.6032C80.6726 43.4055 80.6752 43.189 80.6752 42.9539C80.6804 42.7134 80.6829 42.5023 80.6829 42.3206V41.6393C80.6829 41.2705 80.6315 41.0167 80.5288 40.8778C80.4312 40.7388 80.2693 40.6693 80.0432 40.6693C79.8685 40.6693 79.699 40.7067 79.5346 40.7816C79.3701 40.8564 79.1903 40.9793 78.9951 41.1503V42.3206C78.9951 42.497 78.9951 42.7054 78.9951 42.9459C79.0002 43.181 79.0053 43.4001 79.0105 43.6032L79.5423 43.7154V44.004H77.7542Z" fill="#CCCCCC"/>
<path d="M86.3619 40.485V40.1964H87.8648V40.485L87.4486 40.5731L86.2077 43.98C85.9508 44.6907 85.7016 45.2037 85.4601 45.519C85.2238 45.8397 84.9463 46 84.6278 46C84.4377 46 84.2707 45.9492 84.1268 45.8477C83.9881 45.7515 83.9187 45.6259 83.9187 45.4709C83.9444 45.3534 84.0061 45.2652 84.1037 45.2064C84.2064 45.1476 84.3169 45.1182 84.4351 45.1182C84.5379 45.1182 84.6329 45.1396 84.7203 45.1824C84.8076 45.2305 84.9027 45.3106 85.0054 45.4228L85.044 45.4629C85.2084 45.3186 85.3471 45.1423 85.4601 44.9339C85.5732 44.7308 85.6657 44.5224 85.7376 44.3086L85.7684 44.2124L84.3734 40.5491L83.9495 40.485V40.1964H85.7993V40.493L85.121 40.5731L86.0844 43.3066L87.0324 40.5812L86.3619 40.485Z" fill="#CCCCCC"/>
<path d="M89.8238 44.1082C89.5258 44.1082 89.2407 44.0361 88.9683 43.8918C88.7012 43.7422 88.4828 43.5204 88.3132 43.2265C88.1437 42.9272 88.0589 42.5584 88.0589 42.1202C88.0589 41.6767 88.1437 41.3053 88.3132 41.006C88.4828 40.7014 88.7012 40.4743 88.9683 40.3246C89.2407 40.1697 89.5258 40.0922 89.8238 40.0922C90.1218 40.0922 90.4044 40.1697 90.6716 40.3246C90.9439 40.4743 91.1649 40.7014 91.3344 41.006C91.5091 41.3053 91.5965 41.6767 91.5965 42.1202C91.5965 42.5584 91.5091 42.9272 91.3344 43.2265C91.1649 43.5204 90.9439 43.7422 90.6716 43.8918C90.4044 44.0361 90.1218 44.1082 89.8238 44.1082ZM89.8238 43.7475C90.1578 43.7475 90.4147 43.6112 90.5945 43.3387C90.7744 43.0608 90.8643 42.6546 90.8643 42.1202C90.8643 41.5805 90.7744 41.169 90.5945 40.8858C90.4147 40.6025 90.1578 40.4609 89.8238 40.4609C89.4898 40.4609 89.2329 40.6025 89.0531 40.8858C88.8784 41.169 88.7911 41.5805 88.7911 42.1202C88.7911 42.6546 88.8784 43.0608 89.0531 43.3387C89.2329 43.6112 89.4898 43.7475 89.8238 43.7475Z" fill="#CCCCCC"/>
<path d="M93.5854 44.1082C93.272 44.1082 93.0253 44.0013 92.8455 43.7876C92.6657 43.5685 92.5783 43.1944 92.5835 42.6653L92.6066 40.6693L92.0594 40.5491V40.2605L93.1923 40.1483L93.2694 40.2285L93.2309 41.3507V42.5932C93.2309 42.9405 93.2822 43.1864 93.385 43.3307C93.4878 43.4696 93.6419 43.5391 93.8474 43.5391C94.2071 43.5391 94.5668 43.3654 94.9264 43.018L94.9495 40.6613L94.4023 40.5491V40.2605L95.5199 40.1483L95.5969 40.2285L95.5738 41.3507V43.6032L96.0979 43.7154V44.004L95.0266 44.0681L94.9495 43.3547C94.744 43.6166 94.5231 43.8089 94.2867 43.9319C94.0555 44.0494 93.8217 44.1082 93.5854 44.1082Z" fill="#CCCCCC"/>
<path d="M99.9854 42.4008C100.232 42.4008 100.425 42.3046 100.563 42.1122C100.702 41.9198 100.772 41.6767 100.772 41.3828C100.772 41.0995 100.705 40.8697 100.571 40.6934C100.443 40.5117 100.258 40.4208 100.016 40.4208C99.7748 40.4208 99.5847 40.5144 99.4459 40.7014C99.3072 40.8831 99.2378 41.1209 99.2378 41.4148C99.2378 41.7088 99.3021 41.9466 99.4305 42.1283C99.5641 42.31 99.7491 42.4008 99.9854 42.4008ZM100.001 42.7214C99.8005 42.7214 99.6104 42.6921 99.4305 42.6333C99.3021 42.8043 99.2378 42.9753 99.2378 43.1463C99.2378 43.2532 99.2661 43.3387 99.3226 43.4028C99.3843 43.4669 99.505 43.499 99.6849 43.499H100.694C101.121 43.499 101.434 43.5898 101.635 43.7715C101.835 43.9532 101.935 44.2071 101.935 44.5331C101.935 44.7629 101.863 44.9846 101.72 45.1984C101.581 45.4122 101.37 45.5858 101.088 45.7194C100.805 45.853 100.453 45.9198 100.032 45.9198C99.4716 45.9198 99.0657 45.829 98.8139 45.6473C98.5622 45.4656 98.4363 45.2331 98.4363 44.9499C98.4363 44.7789 98.4902 44.6186 98.5981 44.4689C98.7112 44.3246 98.909 44.1804 99.1916 44.0361C98.8525 43.9399 98.6829 43.7368 98.6829 43.4269C98.6829 43.2986 98.7215 43.165 98.7985 43.0261C98.8807 42.8871 99.0169 42.7241 99.207 42.5371C99.022 42.4302 98.8756 42.2832 98.7677 42.0962C98.6649 41.9092 98.6136 41.6794 98.6136 41.4068C98.6136 40.9846 98.7446 40.6613 99.0066 40.4369C99.2738 40.2071 99.6078 40.0922 100.009 40.0922C100.414 40.0922 100.741 40.1964 100.987 40.4048L101.858 40.0922L101.974 40.1723V40.6774H101.219C101.337 40.8751 101.396 41.1182 101.396 41.4068C101.396 41.829 101.262 42.155 100.995 42.3848C100.733 42.6092 100.402 42.7214 100.001 42.7214ZM99.0683 44.8216C99.0683 45.0835 99.1582 45.2705 99.338 45.3828C99.5179 45.495 99.7594 45.5511 100.062 45.5511C100.484 45.5511 100.805 45.4709 101.026 45.3106C101.247 45.1556 101.357 44.9659 101.357 44.7415C101.357 44.5651 101.298 44.4155 101.18 44.2926C101.062 44.175 100.864 44.1162 100.587 44.1162H99.6849C99.6335 44.1162 99.5795 44.1136 99.523 44.1082C99.4716 44.1082 99.4202 44.1055 99.3689 44.1002C99.261 44.2178 99.1839 44.3327 99.1376 44.4449C99.0914 44.5625 99.0683 44.688 99.0683 44.8216Z" fill="#CCCCCC"/>
<path d="M104.184 44.1082C103.886 44.1082 103.601 44.0361 103.329 43.8918C103.062 43.7422 102.843 43.5204 102.674 43.2265C102.504 42.9272 102.419 42.5584 102.419 42.1202C102.419 41.6767 102.504 41.3053 102.674 41.006C102.843 40.7014 103.062 40.4743 103.329 40.3246C103.601 40.1697 103.886 40.0922 104.184 40.0922C104.482 40.0922 104.765 40.1697 105.032 40.3246C105.304 40.4743 105.525 40.7014 105.695 41.006C105.87 41.3053 105.957 41.6767 105.957 42.1202C105.957 42.5584 105.87 42.9272 105.695 43.2265C105.525 43.5204 105.304 43.7422 105.032 43.8918C104.765 44.0361 104.482 44.1082 104.184 44.1082ZM104.184 43.7475C104.518 43.7475 104.775 43.6112 104.955 43.3387C105.135 43.0608 105.225 42.6546 105.225 42.1202C105.225 41.5805 105.135 41.169 104.955 40.8858C104.775 40.6025 104.518 40.4609 104.184 40.4609C103.85 40.4609 103.593 40.6025 103.414 40.8858C103.239 41.169 103.152 41.5805 103.152 42.1202C103.152 42.6546 103.239 43.0608 103.414 43.3387C103.593 43.6112 103.85 43.7475 104.184 43.7475Z" fill="#CCCCCC"/>
<path d="M107.451 44.1082C107.312 44.1082 107.194 44.0574 107.096 43.9559C107.004 43.849 106.958 43.7261 106.958 43.5872C106.958 43.4482 107.004 43.328 107.096 43.2265C107.194 43.1196 107.312 43.0661 107.451 43.0661C107.59 43.0661 107.708 43.1196 107.805 43.2265C107.903 43.328 107.952 43.4482 107.952 43.5872C107.952 43.7261 107.903 43.849 107.805 43.9559C107.708 44.0574 107.59 44.1082 107.451 44.1082ZM109 40.3086C109 40.811 108.743 41.1476 108.229 41.3186L107.967 41.4148C107.808 41.4683 107.708 41.5217 107.667 41.5751C107.626 41.6286 107.605 41.7221 107.605 41.8557V42.2966H107.304L107.212 41.9599C107.166 41.8049 107.132 41.6847 107.112 41.5992C107.096 41.5137 107.089 41.4469 107.089 41.3988C107.089 41.2759 107.135 41.1743 107.227 41.0942C107.32 41.014 107.479 40.9392 107.705 40.8697L108.145 40.7255C108.432 40.6239 108.576 40.4395 108.576 40.1723C108.576 40.0708 108.558 39.9719 108.522 39.8758C108.486 39.7742 108.437 39.6754 108.376 39.5792L107.366 39.3948C107.14 39.352 106.991 39.2959 106.919 39.2265C106.847 39.1516 106.811 39.0635 106.811 38.9619C106.811 38.839 106.847 38.7455 106.919 38.6814C106.991 38.6119 107.096 38.5584 107.235 38.521C107.399 38.5371 107.582 38.5905 107.782 38.6814C107.983 38.7722 108.175 38.8951 108.36 39.0501C108.545 39.2051 108.697 39.3894 108.815 39.6032C108.938 39.817 109 40.0521 109 40.3086Z" fill="#CCCCCC"/>
</svg>
